# xmcd CD database file
#
# Track frame offsets:
#	150
#	26264
#	51171
#	75015
#	100704
#	121150
#	139882
#	166513
#	191022
#
# Disc length: 2793 seconds
#
# Revision: 0
# Processed by: cddbd v1.5.2PL0 Copyright (c) Steve Scherf et al.
# Submitted via: CDex 1.51
#
DISCID=5d0ae709
DTITLE=Berndt Luef - Cloud Mirror
DYEAR=2005
DGENRE=Jazz
TTITLE0=Cloud Mirror
TTITLE1=Maja's Ballad
TTITLE2=As Long As I Live
TTITLE3=Sweet And Lovely
TTITLE4=Come Sunday
TTITLE5=Becalypso
TTITLE6=I Hadn't Anyone Till You
TTITLE7=Door Ajar
TTITLE8=Hoax
EXTD=YEAR: 2005
EXTT0=
EXTT1=
EXTT2=
EXTT3=
EXTT4=
EXTT5=
EXTT6=
EXTT7=
EXTT8=
PLAYORDER=
